<svg xmlns="http://www.w3.org/2000/svg" viewBox="0 0 122.3 30.07"><defs><style>.cls-1{fill:#3587d7;}</style></defs><g id="Camada_2" data-name="Camada 2"><g id="HPC"><path class="cls-1" d="M18.16,22.31l.69-.5A4.62,4.62,0,0,1,20.7,21c.79,0,1.65.72,2.57,2.15a4.56,4.56,0,0,1,.85,2.15,1.9,1.9,0,0,1-.52,1.35,6.09,6.09,0,0,1-1.21,1l-1.33.8a13.45,13.45,0,0,1-2.59,1,12.65,12.65,0,0,1-3.78.62A14.72,14.72,0,0,1,11,29.59,15.51,15.51,0,0,1,7.16,28a15.61,15.61,0,0,1-3.55-2.76A12.71,12.71,0,0,1,1,21a14.81,14.81,0,0,1-1-5.55A14.16,14.16,0,0,1,1,10,12.48,12.48,0,0,1,3.55,6,14.83,14.83,0,0,1,7.1,3.34a15.57,15.57,0,0,1,7.57-2.07,12.87,12.87,0,0,1,3.67.55A13,13,0,0,1,21.16,3l.92.53c.46.29.82.52,1.08.7a2.31,2.31,0,0,1,1,1.82,3.7,3.7,0,0,1-.8,2.13c-1,1.38-1.9,2.07-2.69,2.07a4.06,4.06,0,0,1-2-.84,6.65,6.65,0,0,0-4.3-1.31A8.44,8.44,0,0,0,9.48,9.79a6.63,6.63,0,0,0-1.92,2.38,7.73,7.73,0,0,0-.76,3.48,7.66,7.66,0,0,0,.76,3.47,6.72,6.72,0,0,0,2,2.42,8.21,8.21,0,0,0,4.88,1.69,7.89,7.89,0,0,0,2.25-.31A5.43,5.43,0,0,0,18.16,22.31Z"/><path class="cls-1" d="M29.3,12A10.55,10.55,0,0,1,44,12a9.91,9.91,0,0,1,3.19,7.59,10,10,0,0,1-1.65,5.66,10.38,10.38,0,0,1-4,3.65A10.93,10.93,0,0,1,36.63,30a10.44,10.44,0,0,1-4.91-1.25,10.87,10.87,0,0,1-4-3.69,9.72,9.72,0,0,1-1.63-5.51A9.93,9.93,0,0,1,29.3,12Zm4.8,10.35a4.06,4.06,0,0,0,2.49.94,4.2,4.2,0,0,0,2.54-1,3.36,3.36,0,0,0,1.27-2.84,3.31,3.31,0,0,0-1.19-2.8,4.13,4.13,0,0,0-2.58-.93,4,4,0,0,0-2.57,1,3.43,3.43,0,0,0-1.19,2.83A3.31,3.31,0,0,0,34.1,22.33Z"/><path class="cls-1" d="M60.94,9.45a8.13,8.13,0,0,1,6.39,2.93,10.52,10.52,0,0,1,2.56,7.17V26.3a10.86,10.86,0,0,1-.06,1.33,3.23,3.23,0,0,1-.33,1c-.36.69-1.35,1-3,1-1.82,0-2.87-.47-3.15-1.42a6.28,6.28,0,0,1-.23-1.95V19.51a3.08,3.08,0,0,0-3.32-3.34,3.33,3.33,0,0,0-2.46.92,3.22,3.22,0,0,0-.94,2.42V26.3a10.86,10.86,0,0,1-.06,1.33,2.88,2.88,0,0,1-.36,1c-.34.69-1.32,1-3,1s-2.6-.34-3-1a3.35,3.35,0,0,1-.32-1,10.67,10.67,0,0,1-.06-1.32V12.67a10.16,10.16,0,0,1,.06-1.28,2.62,2.62,0,0,1,.36-1c.36-.64,1.35-1,3-1s2.52.29,2.88.88a3.12,3.12,0,0,1,.38,1.57,4,4,0,0,1,.69-.76,6.29,6.29,0,0,1,1-.81A5,5,0,0,1,60.94,9.45Z"/><path class="cls-1" d="M84.21,9.45a8.13,8.13,0,0,1,6.39,2.93,10.57,10.57,0,0,1,2.56,7.17V26.3a10.86,10.86,0,0,1-.06,1.33,3.23,3.23,0,0,1-.33,1c-.36.69-1.35,1-3,1-1.82,0-2.87-.47-3.15-1.42a6,6,0,0,1-.23-1.95V19.51a3.08,3.08,0,0,0-3.32-3.34,3.33,3.33,0,0,0-2.46.92,3.22,3.22,0,0,0-.94,2.42V26.3a10.86,10.86,0,0,1-.06,1.33,2.73,2.73,0,0,1-.37,1c-.33.69-1.31,1-3,1s-2.6-.34-3-1a3.35,3.35,0,0,1-.32-1A10.67,10.67,0,0,1,73,26.27V12.67A10.16,10.16,0,0,1,73,11.39a2.46,2.46,0,0,1,.36-1c.36-.64,1.34-1,3-1s2.52.29,2.88.88a3.12,3.12,0,0,1,.38,1.57,4,4,0,0,1,.69-.76,6.29,6.29,0,0,1,1-.81A5,5,0,0,1,84.21,9.45Z"/><path class="cls-1" d="M102.54,5.7a1.62,1.62,0,0,1-1,.79,6.81,6.81,0,0,1-1.94.23,6.71,6.71,0,0,1-1.94-.23,1.58,1.58,0,0,1-1-.81,3.07,3.07,0,0,1-.34-1,10.86,10.86,0,0,1-.06-1.33A10.56,10.56,0,0,1,96.29,2a2.87,2.87,0,0,1,.32-1c.36-.69,1.36-1,3-1s2.58.35,2.91,1a3,3,0,0,1,.37,1A10.86,10.86,0,0,1,103,3.38a10.56,10.56,0,0,1-.06,1.32A2.93,2.93,0,0,1,102.54,5.7Zm-6.31,7.13a10.75,10.75,0,0,1,.06-1.33,3.35,3.35,0,0,1,.32-1c.36-.66,1.36-1,3-1a4,4,0,0,1,2.61.66,2.15,2.15,0,0,1,.69,1.65c0,.25,0,.63,0,1.11V26.34a10.86,10.86,0,0,1-.06,1.33,3,3,0,0,1-.37,1c-.33.67-1.31,1-3,1s-2.6-.34-3-1a3.34,3.34,0,0,1-.32-1,10.68,10.68,0,0,1-.06-1.35Z"/><path class="cls-1" d="M106.17,27.88a1.62,1.62,0,0,1-.73-1.46,6.29,6.29,0,0,1,1.46-3,1.5,1.5,0,0,1,1.36-.66,5.71,5.71,0,0,1,2.56.94,5.88,5.88,0,0,0,2.92.94c1.56,0,2.34-.3,2.34-.92s-.86-.84-2.57-1.07a12.37,12.37,0,0,1-4.8-1.81,5.09,5.09,0,0,1-1.85-2.17,7.91,7.91,0,0,1-.73-3.51q0-6.08,8.34-6.07a13.55,13.55,0,0,1,5.6,1.31q1.35.62,1.35,1.53a4.59,4.59,0,0,1-.85,2.27c-.56.9-1.14,1.34-1.73,1.34a5.35,5.35,0,0,1-1.71-.57,6.27,6.27,0,0,0-2.7-.58c-1.51,0-2.27.28-2.27.85,0,.76.87,1.26,2.61,1.49a14.43,14.43,0,0,1,4.92,1.46A4.35,4.35,0,0,1,121.55,20a6.66,6.66,0,0,1,.75,3.32,7.14,7.14,0,0,1-.75,3.4,4.9,4.9,0,0,1-2.09,2.09A14.17,14.17,0,0,1,113.29,30,13.21,13.21,0,0,1,106.17,27.88Z"/></g></g></svg>