<svg width="299" height="266" viewBox="0 0 299 266" fill="none" xmlns="http://www.w3.org/2000/svg">
<g clip-path="url(#clip0_344_1510)">
<path opacity="0.18" d="M328.977 181.779C328.976 188.219 328.264 194.641 326.854 200.925C314.303 257.116 247.406 300 166.784 300C133.522 300 102.601 292.699 76.8698 280.183C59.114 271.547 43.8248 260.427 31.9456 247.497C26.8945 242.71 22.4494 237.322 18.7094 231.454C-15.405 178.574 -2.6127 84.2157 55.1038 85.0017C61.9887 85.1386 68.8747 84.7867 75.7096 83.9486C91.927 81.8576 101.763 76.96 107.721 71.6493C109.184 70.3511 110.517 68.9133 111.7 67.3564C119.991 56.3482 132.215 48.9606 145.825 46.7333C266.211 27.4706 310.051 87.4202 323.64 137.932C327.332 151.553 329.113 165.619 328.932 179.728C328.967 180.408 328.977 181.093 328.977 181.779Z" fill="#68E1FD"/>
<path opacity="0.05" d="M86.6506 258.482L22.4169 236.816C22.4169 236.816 -1.22056 207.526 0.0959923 158.268L95.6848 197.353C95.6848 197.353 137.25 185.422 162.012 184.227C186.774 183.033 296.553 171.52 296.553 171.52C296.553 171.52 317.738 195.781 308.316 203.203C298.893 210.625 231.073 211.874 231.073 211.874L183.909 184.263L144.241 214.877L114.016 243.366L86.6506 258.482Z" fill="#000405"/>
<path d="M191.955 149.718L190.946 152.277C190.946 152.277 193.972 154.953 191.955 156.102C191.955 156.102 202.457 155.452 191.955 149.718Z" fill="#3F3D56"/>
<path d="M71.9214 232.608L70.7007 236.065L80.7236 240.746C80.7236 240.746 90.0253 241.915 92.8854 239.466C94.6204 237.939 95.8882 235.953 96.5425 233.737L71.9214 232.608Z" fill="#333333"/>
<path d="M98.1664 200.18C98.1664 200.18 109.96 199.973 113.41 204.251C116.86 208.529 104.462 221.196 104.462 221.196L75.8657 223.211L98.1664 200.18Z" fill="#68E1FD"/>
<path d="M98.1664 200.18C98.1664 200.18 109.96 199.973 113.41 204.251C116.86 208.529 104.462 221.196 104.462 221.196L75.8657 223.211L98.1664 200.18Z" fill="url(#paint0_linear_344_1510)"/>
<path d="M97.7429 218.545C97.7429 218.545 122.52 220.778 126.828 222.365C134.97 225.423 132.548 236.851 128.871 238.07C125.799 239.103 102.434 247.644 94.9635 250.38C94.3442 250.603 93.6627 250.581 93.0593 250.317C92.4559 250.054 91.9766 249.57 91.7201 248.964L89.1323 242.862C88.9901 242.528 88.9201 242.168 88.927 241.805C88.9339 241.442 89.0175 241.085 89.1723 240.757C89.3271 240.428 89.5496 240.137 89.8253 239.9C90.1009 239.664 90.4234 239.488 90.7717 239.385L105.471 235.017C105.471 235.017 83.6492 237.214 79.2405 236.236C69.4799 234.1 59.8554 221.624 64.9804 210.731C70.1054 199.837 97.7429 218.545 97.7429 218.545Z" fill="#68E1FD"/>
<path d="M97.7429 218.545C97.7429 218.545 122.52 220.778 126.828 222.365C134.97 225.423 132.548 236.851 128.871 238.07C125.799 239.103 102.434 247.644 94.9635 250.38C94.3442 250.603 93.6627 250.581 93.0593 250.317C92.4559 250.054 91.9766 249.57 91.7201 248.964L89.1323 242.862C88.9901 242.528 88.9202 242.168 88.9271 241.805C88.9339 241.442 89.0175 241.085 89.1723 240.757C89.3271 240.428 89.5496 240.137 89.8253 239.9C90.1009 239.664 90.4234 239.488 90.7717 239.385L105.471 235.017C105.471 235.017 83.6492 237.214 79.2405 236.236C69.4799 234.1 59.8554 221.624 64.9804 210.731C70.1054 199.837 97.7429 218.545 97.7429 218.545Z" fill="url(#paint1_linear_344_1510)"/>
<path d="M162.471 156.958L161.326 161.433L167.197 166.627C167.197 166.627 165.517 166.627 164.171 169.248L163.636 174.976C163.636 174.976 167.581 183.502 178.466 176.05L196.121 191.639L235.28 177.864L236.117 172.533L162.471 156.958Z" fill="#3F3D56"/>
<path d="M268.633 161.236L249.152 153.593C247.95 152.92 246.603 152.547 245.225 152.507C243.848 152.467 242.482 152.76 241.242 153.361C240.144 153.879 239.209 154.687 238.538 155.698C237.867 156.708 237.485 157.883 237.434 159.095C236.763 166.451 240.728 200.311 240.728 200.311C242.19 200.876 243.714 201.267 245.268 201.475C246.631 201.746 248.037 201.716 249.387 201.386C250.737 201.056 251.998 200.435 253.081 199.565L253.46 174.095C253.46 174.095 275.417 187.644 283.251 186.515C292.018 185.255 306.122 178.07 296.593 161.407C287.064 144.745 268.633 161.236 268.633 161.236Z" fill="#68E1FD"/>
<path d="M268.633 161.236L249.152 153.593C247.95 152.92 246.603 152.547 245.225 152.507C243.848 152.467 242.482 152.76 241.242 153.361C240.144 153.879 239.209 154.687 238.538 155.698C237.867 156.708 237.485 157.883 237.434 159.095C236.763 166.451 240.728 200.311 240.728 200.311C242.19 200.876 243.714 201.267 245.268 201.475C246.631 201.746 248.037 201.716 249.387 201.386C250.737 201.056 251.998 200.435 253.081 199.565L253.46 174.095C253.46 174.095 275.417 187.644 283.251 186.515C292.018 185.255 306.122 178.07 296.593 161.407C287.064 144.745 268.633 161.236 268.633 161.236Z" fill="url(#paint2_linear_344_1510)"/>
<path d="M252.491 116.433C252.491 116.433 246.771 134.622 245.227 138.522C243.684 142.422 216.636 145.667 216.636 145.667L217.645 157.341L248.445 153.522L257.707 140.144L252.491 116.433Z" fill="#68E1FD"/>
<path opacity="0.61" d="M252.491 116.433C252.491 116.433 246.771 134.622 245.227 138.522C243.684 142.422 216.636 145.667 216.636 145.667L217.645 157.341L248.445 153.522L257.707 140.144L252.491 116.433Z" fill="url(#paint3_linear_344_1510)"/>
<path d="M267.896 110.396L274.166 113.873C285.813 119.068 290.06 130.632 296.578 161.488C296.578 161.488 291.069 173.792 270.791 165.519C270.791 165.519 257.031 145.435 254.761 137.907C252.491 130.38 246.776 117.425 257.283 112.472C267.79 107.519 267.896 110.396 267.896 110.396Z" fill="#68E1FD"/>
<path opacity="0.05" d="M281.339 136.889L288.976 165.675C288.976 165.675 281.183 170.422 270.766 165.504C260.35 160.586 264.037 155.694 260.678 149.718L270.882 144.175L281.339 136.889Z" fill="#000405"/>
<path d="M267.013 109.152C266.61 110.024 266.033 110.806 265.318 111.449C264.604 112.092 263.766 112.584 262.855 112.895C261.945 113.206 260.981 113.329 260.021 113.258C259.062 113.186 258.127 112.92 257.273 112.477C257.273 112.477 251.381 122.741 259.795 121.517C264.254 120.867 268.158 114.236 268.905 110.875L267.013 109.152Z" fill="#333333"/>
<path d="M267.391 100.919C267.391 101.035 267.124 106.098 266.917 109.746C266.766 112.569 265.554 115.231 263.523 117.199C262.345 118.42 260.931 119.389 259.366 120.045C258.989 120.186 258.58 120.219 258.184 120.142C257.789 120.064 257.423 119.879 257.126 119.607C256.829 119.333 256.612 118.983 256.5 118.595C256.388 118.207 256.385 117.795 256.491 117.405C256.693 116.644 256.894 115.768 257.056 114.851C257.389 112.946 257.56 110.885 257.02 109.429C257.005 109.374 256.986 109.32 256.965 109.268C256.662 108.517 256.965 107.696 257.676 106.869C258.655 105.71 260.37 104.536 262.085 103.544C263.803 102.57 265.575 101.693 267.391 100.919Z" fill="url(#paint4_linear_344_1510)"/>
<path d="M258.181 114.463C257.83 114.639 257.459 114.769 257.076 114.851C257.409 112.946 257.58 110.885 257.041 109.429L257.696 106.869L258.201 104.965L262.125 103.544L266.095 102.108C265.106 109.152 261.338 112.986 258.181 114.463Z" fill="url(#paint5_linear_344_1510)"/>
<path d="M257.177 80.8549C255.626 80.9449 254.109 81.3543 252.724 82.0573C251.338 82.7603 250.113 83.7418 249.125 84.9402C248.137 86.1385 247.407 87.528 246.982 89.0212C246.557 90.5145 246.446 92.0794 246.655 93.6177C247.009 98.1906 248.184 102.662 250.125 106.819C253.802 113.087 263.084 107.927 264.552 105.348C266.02 102.768 271.568 91.0934 269.243 87.7729C267.72 85.5156 263.2 80.6181 257.177 80.8549Z" fill="url(#paint6_linear_344_1510)"/>
<path d="M247.381 76.4209L249.288 77.3984C248.15 77.372 247.022 77.6165 245.998 78.1115C244.973 78.6065 244.082 79.3379 243.396 80.2452C241.653 81.9841 240.661 84.3352 240.632 86.7954L243.875 85.2838C243.875 85.2838 243.628 89.2744 249.762 89.5818C255.896 89.8891 262.398 90.136 262.398 90.136L260.33 87.2539C260.33 87.2539 264.138 88.7655 264.809 90.1965C265.41 92.4554 265.842 94.7561 266.1 97.0793C266.1 97.0793 267.614 93.1391 268.254 94.0007C268.895 94.8623 267.588 98.4347 266.786 99.2157C265.984 99.9966 266.121 102.35 266.045 102.541C265.969 102.733 269.858 99.518 270.03 98.4145C270.201 97.3111 274.065 86.1303 271.543 83.8025L273.056 83.6916C272.15 83.076 271.115 82.6761 270.03 82.5227C270.03 82.5227 259.997 69.2761 247.381 76.4209Z" fill="#333333"/>
<path d="M216.601 147.128C214.659 146.788 212.75 146.282 210.896 145.616C207.923 144.846 204.882 144.372 201.816 144.201C201.816 144.201 201.226 146.216 202.825 146.629C204.424 147.042 206.255 147.717 206.255 147.717L199.586 148.388L193.412 149.229C193.412 149.229 194.002 151.245 195.662 151.245C196.143 152.112 196.789 152.877 197.564 153.497C198.738 154.558 199.827 155.708 200.822 156.938C201.66 157.599 202.553 158.187 203.491 158.697C203.834 158.697 216.833 157.185 217.615 155.946L216.601 147.128Z" fill="url(#paint7_linear_344_1510)"/>
<path d="M270.827 165.519C270.827 165.519 272.844 175.551 275.836 178.075C275.836 178.075 256.224 193.362 255.311 204.422C254.034 219.709 302.293 196.003 302.293 196.003L298.953 187.558L278.03 196.824C278.03 196.824 290.762 188.228 297.087 179.627C302.061 172.805 299.357 166.527 296.583 161.649C296.552 161.488 284.542 171.404 270.827 165.519Z" fill="#68E1FD"/>
<path d="M270.827 165.519C270.827 165.519 272.844 175.551 275.836 178.075C275.836 178.075 256.224 193.362 255.311 204.422C254.034 219.709 302.293 196.003 302.293 196.003L298.954 187.558L278.03 196.824C278.03 196.824 290.762 188.228 297.087 179.627C302.061 172.805 299.357 166.527 296.583 161.649C296.552 161.488 284.542 171.404 270.827 165.519Z" fill="url(#paint8_linear_344_1510)"/>
<path d="M298.898 187.553L302.52 186.308L304.31 191.05L300.31 193.781L298.898 187.553Z" fill="url(#paint9_linear_344_1510)"/>
<path d="M245.646 203.561L245.303 201.459C246.667 201.68 248.061 201.624 249.403 201.296C250.745 200.968 252.008 200.374 253.116 199.55L253.328 202.991C252.19 203.701 250.895 204.123 249.557 204.222C248.219 204.322 246.877 204.094 245.646 203.561Z" fill="url(#paint10_linear_344_1510)"/>
<path d="M245.57 202.916L236.995 206.009C236.995 206.009 232.228 204.845 231.275 207.521C230.65 208.894 230.588 210.457 231.103 211.874C231.103 211.874 233.353 213.89 238.957 212.716C244.561 211.542 253.727 208.685 253.727 208.685L253.384 203.087C252.152 203.648 250.81 203.924 249.457 203.894C248.104 203.864 246.776 203.53 245.57 202.916ZM303.206 185.22C303.206 185.22 301.052 186.102 301.299 186.671C301.546 187.24 302.308 185.986 304.235 191.07L302.999 191.972L305.662 197.701C304.957 198.232 304.396 198.932 304.034 199.737C303.672 200.543 303.519 201.426 303.589 202.306C303.857 203.702 306.333 203.893 308.316 203.208C310.298 202.523 311.156 198.124 311.156 198.124C311.156 198.124 309.859 187.578 307.191 185.82C304.522 184.061 303.206 185.22 303.206 185.22Z" fill="#333333"/>
<path d="M238.538 174.503L198.053 187.246L179.49 171.847C171.999 179.486 163.006 173.757 164.241 169.283C165.477 164.809 173.775 166.436 173.775 166.436L162.526 156.999L183.571 151.708C183.702 152.449 184.58 156.041 189.69 156.329C195.405 156.656 196.701 152.01 191.955 149.738L205.297 146.281L238.538 174.503Z" fill="#68E1FD"/>
<path opacity="0.05" d="M227.723 169.499C227.447 169.575 227.186 169.697 226.951 169.862C226.736 170.069 226.543 170.299 226.376 170.548C225.63 171.475 224.414 171.842 223.31 172.281C222.061 172.773 220.876 173.413 219.779 174.185C219.613 174.279 219.484 174.424 219.41 174.599C219.244 175.138 220.081 175.405 220.364 175.893C220.447 176.077 220.475 176.281 220.445 176.481C220.414 176.68 220.326 176.866 220.192 177.017C219.92 177.314 219.597 177.559 219.239 177.743C217.317 178.914 215.639 180.443 214.295 182.247C220.398 179.076 226.76 176.43 233.312 174.337C233.823 174.21 234.302 173.98 234.72 173.661C234.927 173.499 235.079 173.278 235.156 173.026C235.233 172.775 235.23 172.506 235.148 172.256C235.037 172.009 235.426 171.943 235.224 171.752C234.24 170.875 232.586 169.409 231.269 168.336C231.29 168.346 228.757 169.157 227.723 169.499Z" fill="#000405"/>
<path d="M281.516 119.32C280.797 118.474 279.864 117.836 278.815 117.472C277.766 117.109 276.638 117.032 275.55 117.25C274.461 117.469 273.45 117.975 272.624 118.715C271.797 119.456 271.183 120.404 270.847 121.461C270.484 122.625 270.101 124.021 269.722 125.739C267.704 135.025 258.569 155.22 258.569 155.22L232.042 169.535L239.3 178.821L270.348 163.534C270.348 163.534 284.108 133.171 283.861 127.382C283.952 124.514 283.131 121.692 281.516 119.32Z" fill="#68E1FD"/>
<path opacity="0.61" d="M281.516 119.32C280.797 118.474 279.864 117.836 278.815 117.472C277.766 117.109 276.639 117.032 275.55 117.25C274.461 117.469 273.45 117.975 272.624 118.715C271.797 119.456 271.183 120.404 270.847 121.461C270.484 122.625 270.101 124.021 269.722 125.739C267.704 135.025 258.569 155.22 258.569 155.22L232.042 169.535L239.3 178.821L270.348 163.534C270.348 163.534 284.108 133.171 283.861 127.382C283.952 124.514 283.131 121.692 281.516 119.32Z" fill="url(#paint11_linear_344_1510)"/>
<path d="M234.306 170.835C232.389 171.35 230.432 171.7 228.455 171.883C225.432 172.43 222.47 173.274 219.612 174.402C219.612 174.402 219.915 176.468 221.519 176.181C223.123 175.894 225.08 175.762 225.08 175.762L219.365 179.184L214.104 182.545C214.104 182.545 215.476 184.132 216.979 183.421C217.785 184.008 218.699 184.431 219.668 184.666C221.171 185.133 222.637 185.714 224.051 186.404C225.09 186.654 226.148 186.814 227.214 186.883C227.522 186.747 238.786 179.869 238.861 178.438L234.306 170.835Z" fill="url(#paint12_linear_344_1510)"/>
<path d="M145.658 167.146L155.343 170.966V176.7C155.343 176.7 143.741 176.947 143.741 181.97C143.741 186.994 154.682 190.934 162.017 184.227L178.713 193.801L178.108 198.708L127.343 217.054L98.2573 181.607V175.878L145.658 167.146Z" fill="#3F3D56"/>
<path d="M145.658 161.488L155.343 170.946C155.343 170.946 143.741 171.198 143.741 176.221C143.741 181.245 154.682 185.185 162.017 178.473L178.713 193.76L127.877 211.668L98.2573 175.974L118.212 169.877C118.212 169.877 111.867 165.615 117.965 162.768C119.092 162.216 120.315 161.885 121.567 161.795C126.354 161.604 127.116 164.068 127.746 166.764V166.975L145.658 161.488Z" fill="#68E1FD"/>
<path opacity="0.05" d="M106.323 173.51C106.323 173.51 114.394 191.035 118.233 193.942C120.371 195.564 135.156 200.381 147.711 201.061C148.887 201.127 152.559 197.726 154.294 198.174C156.816 198.834 153.835 201.097 154.42 201.127C161.987 201.485 166.178 198.174 166.178 198.174L126.329 212.544L99.6294 174.301L106.323 173.51Z" fill="#000405"/>
<path d="M145.204 204.881C146.556 203.114 148.103 201.505 149.815 200.084C151.215 199.249 152.722 198.607 154.294 198.174C154.294 198.174 155 200.316 153.79 200.719C152.579 201.122 151.883 203.238 151.883 203.238C151.883 203.238 160.69 204.921 161.755 204.402C162.819 203.883 162.92 205.531 160.842 205.838C158.763 206.145 158.824 209.123 157.412 209.365C155.999 209.607 153.906 210.952 151.828 211.451C149.419 211.659 146.993 211.547 144.614 211.119L145.204 204.881Z" fill="url(#paint13_linear_344_1510)"/>
<path d="M104.795 179.451C105.937 173.246 105.178 166.842 102.618 161.075C100.057 155.308 95.8144 150.447 90.4439 147.128C88.5317 145.819 86.3396 144.976 84.0428 144.664C74.8168 144.13 64.9805 210.721 64.9805 210.721C64.9805 210.721 69.4245 223.619 82.8775 224.859C95.3066 226.008 97.7279 218.535 97.7279 218.535L104.795 179.451Z" fill="#68E1FD"/>
<path opacity="0.61" d="M104.795 179.451C105.937 173.246 105.178 166.842 102.618 161.075C100.057 155.308 95.8144 150.447 90.4439 147.128C88.5317 145.819 86.3396 144.976 84.0428 144.664C74.8168 144.13 64.9805 210.721 64.9805 210.721C64.9805 210.721 69.4245 223.619 82.8775 224.859C95.3066 226.008 97.7279 218.535 97.7279 218.535L104.795 179.451Z" fill="url(#paint14_linear_344_1510)"/>
<path d="M84.0425 144.654C84.0425 144.654 85.3943 134.607 85.9492 128.072C86.5041 121.537 88.6529 112.785 99.6343 113.928C110.616 115.072 110.611 131.664 107.559 138.618C104.507 145.571 100.451 145.344 100.451 145.344C100.451 145.344 94.9835 144.14 95.1701 150.715L84.0425 144.654Z" fill="url(#paint15_linear_344_1510)"/>
<path d="M88.1938 112.518C86.5937 114.05 85.4352 115.983 84.8393 118.116C84.3448 119.845 84.0072 121.616 83.8305 123.406L84.9554 122.187C84.8916 125.254 84.6559 128.316 84.2492 131.357C83.8339 134.192 83.6651 137.058 83.7447 139.923L85.7877 139.827L88.3098 142.981L91.1497 141.067L93.2834 139.943L95.1902 135.257C94.7258 134.917 94.3853 134.435 94.2205 133.883C94.0557 133.332 94.0756 132.742 94.2772 132.204C94.9834 130.294 96.7135 129.851 97.1171 130.979C97.4258 132.385 97.5948 133.818 97.6215 135.257L100.648 126.691C100.648 126.691 102.555 124.031 104.214 125.87C105.209 126.978 106.466 127.819 107.871 128.314L106.863 125.447L109.607 126.152L109.395 122.887L111.438 124.318C111.438 124.318 112.351 119.028 110.616 116.675C108.88 114.321 102.035 104.97 88.1938 112.518Z" fill="#333333"/>
<path d="M145.487 203.183L123.019 200.754C119.983 200.172 117.205 198.653 115.078 196.411C112.951 194.17 111.581 191.318 111.16 188.258L102.852 162.939C102.35 161.35 101.413 159.934 100.146 158.85C98.879 157.766 97.3335 157.058 95.6845 156.807C94.3837 156.613 93.0548 156.751 91.8222 157.21C90.5896 157.668 89.4936 158.431 88.6368 159.428C87.78 160.425 87.1904 161.623 86.9233 162.909C86.6561 164.196 86.7201 165.529 87.1093 166.784L95.6845 197.353C96.0891 200.709 97.6349 203.825 100.063 206.179C102.492 208.534 105.656 209.984 109.027 210.287L144.251 214.877L145.487 203.183Z" fill="#68E1FD"/>
<path opacity="0.61" d="M145.487 203.183L123.019 200.754C119.983 200.172 117.205 198.653 115.078 196.411C112.951 194.17 111.581 191.318 111.16 188.258L102.852 162.939C102.35 161.35 101.413 159.934 100.146 158.85C98.879 157.766 97.3335 157.058 95.6846 156.807C94.3837 156.613 93.0548 156.751 91.8222 157.21C90.5896 157.668 89.4936 158.431 88.6368 159.428C87.78 160.425 87.1904 161.623 86.9233 162.909C86.6561 164.196 86.7201 165.529 87.1093 166.784L95.6846 197.353C96.0891 200.709 97.6349 203.825 100.063 206.179C102.492 208.534 105.656 209.984 109.027 210.287L144.251 214.877L145.487 203.183Z" fill="url(#paint16_linear_344_1510)"/>
<path d="M90.0251 240.343L83.4121 241.854L86.0603 249.498L92.9811 247.901C92.9811 247.901 94.8122 241.99 90.0251 240.343Z" fill="url(#paint17_linear_344_1510)"/>
<path d="M80.7235 240.746C80.7235 240.746 85.0515 239.829 85.7678 241.3C86.484 242.771 84.1839 242.676 84.6429 244.762C85.0275 246.348 85.5042 247.911 86.0704 249.442L88.2041 248.964L88.643 251.483C88.7364 251.917 88.9776 252.304 89.3253 252.58C89.6731 252.856 90.1058 253.002 90.5497 252.995C95.5435 253.282 94.8777 257.807 93.1223 257.978L86.6606 258.457L83.2507 255.61C82.8419 255.326 82.519 254.936 82.3175 254.481C81.0514 252.037 77.2228 242.943 80.7235 240.746Z" fill="#333333"/>
<path opacity="0.4" d="M185.836 84.9261C185.505 85.4033 185.218 85.9092 184.979 86.4377C183.531 89.5314 178.633 100.596 177.917 110.185C177.774 112.518 176.779 114.718 175.12 116.367C173.461 118.015 171.254 118.998 168.918 119.128L160.171 119.632L157.311 119.783C155.013 119.919 152.744 119.22 150.922 117.815C149.1 116.41 147.849 114.394 147.399 112.14C145.608 103.312 141.795 89.8236 134.385 83.863C134.385 83.863 101.713 53.9788 123.499 20.6533C124.963 18.4017 126.601 16.2673 128.397 14.2694C151.263 -11.0144 189.004 0.503865 198.073 23.9889C207.143 47.474 189.443 79.8623 185.836 84.9261Z" fill="#68E1FD"/>
<path d="M179.167 123.255C178.406 125.165 177.528 126.082 178.29 127.346C179.051 128.611 181.246 132.012 170.113 133.524C167.807 133.842 165.484 134.027 163.157 134.078H159.515L157.381 133.982C154.945 133.831 152.978 133.584 151.666 133.373C150.953 133.268 150.27 133.015 149.662 132.63C149.054 132.244 148.533 131.735 148.135 131.135C147.94 130.685 147.875 130.188 147.946 129.703C148.017 129.217 148.222 128.76 148.539 128.384C148.72 128.215 148.856 128.003 148.934 127.767C149.012 127.532 149.028 127.28 148.983 127.036C148.937 126.792 148.83 126.564 148.672 126.372C148.514 126.181 148.31 126.032 148.08 125.941C147.478 125.375 147.121 124.597 147.085 123.773C147.049 122.948 147.337 122.142 147.888 121.527C148.162 121.246 148.389 120.923 148.559 120.569C148.797 120.025 148.882 119.425 148.805 118.836C148.727 118.246 148.491 117.689 148.12 117.224L147.812 116.846C147.387 116.272 147.077 115.622 146.899 114.931C146.714 114.456 146.659 113.941 146.739 113.438C146.82 112.935 147.034 112.462 147.358 112.069C147.808 114.322 149.059 116.337 150.88 117.741C152.701 119.145 154.969 119.843 157.265 119.708L160.125 119.536C160.205 119.424 160.269 119.303 160.317 119.174C160.821 117.954 159.686 116.538 160.261 114.639L162.41 114.543C167.694 114.228 172.912 113.211 177.927 111.52C178.474 111.973 178.849 112.6 178.988 113.297C179.127 113.993 179.021 114.717 178.688 115.344C178.49 115.767 178.356 116.217 178.29 116.68C178.159 117.648 178.324 118.633 178.764 119.506C178.814 119.612 178.871 119.715 178.935 119.814C179.241 120.329 179.421 120.909 179.461 121.507C179.502 122.104 179.401 122.703 179.167 123.255Z" fill="#68E1FD"/>
<path d="M147.378 112.059C157.357 109.476 167.805 109.286 177.871 111.505C177.871 111.505 161.346 118.267 147.378 112.059Z" fill="#333333"/>
<path d="M162.012 133.897C161.182 134.06 160.334 134.118 159.49 134.068L157.351 133.972C154.915 133.821 152.952 133.574 151.636 133.362C150.923 133.258 150.24 133.005 149.631 132.62C149.023 132.234 148.503 131.725 148.105 131.125C147.909 130.675 147.842 130.179 147.912 129.693C147.983 129.207 148.187 128.75 148.503 128.374C148.685 128.204 148.82 127.992 148.898 127.756C148.976 127.52 148.992 127.268 148.947 127.024C148.901 126.78 148.795 126.552 148.637 126.361C148.479 126.17 148.275 126.022 148.044 125.93C147.442 125.365 147.085 124.587 147.05 123.762C147.015 122.937 147.305 122.131 147.858 121.517C148.42 120.954 148.754 120.205 148.796 119.411C148.838 118.618 148.584 117.837 148.085 117.219C147.524 116.558 147.12 115.78 146.904 114.941C146.719 114.467 146.664 113.952 146.743 113.449C146.823 112.946 147.035 112.473 147.358 112.079C152.139 113.908 157.245 114.74 162.36 114.523L162.607 114.639C162.607 114.639 160.7 115.364 161.195 117.027C161.689 118.69 162.415 121.688 160.776 123.638C159.137 125.588 162.289 126.122 161.694 128.319V128.53C161.453 129.186 161.267 129.86 161.139 130.546C160.796 132.274 160.958 133.745 162.012 133.897Z" fill="url(#paint18_linear_344_1510)"/>
<path opacity="0.49" d="M162.395 114.503C157.275 114.725 152.163 113.893 147.378 112.059C145.603 103.287 141.789 89.7985 134.379 83.8428C134.379 83.8428 101.707 53.9587 123.494 20.6332C124.958 18.3815 126.596 16.2471 128.392 14.2492L131.327 13.9822C131.327 13.9822 150.869 3.69835 159.157 14.9547C167.444 26.211 149.356 38.9335 148.407 59.4911C147.459 80.0487 171.011 83.8529 162.395 114.503Z" fill="white"/>
<path d="M176.595 128.546C175.182 129.463 170.113 131.186 161.078 130.561C156.844 130.225 152.651 129.482 148.559 128.344C148.74 128.175 148.876 127.963 148.954 127.727C149.032 127.491 149.048 127.24 149.003 126.996C148.957 126.752 148.85 126.524 148.692 126.332C148.534 126.141 148.33 125.992 148.1 125.9C152.486 127.403 157.082 128.209 161.719 128.289C166.925 128.434 172.122 127.79 177.134 126.379C177.134 126.379 178.708 127.17 176.595 128.546Z" fill="url(#paint19_linear_344_1510)"/>
<path d="M178.748 119.526C177.054 120.942 170.647 123.557 161.386 122.66C157.037 122.503 152.726 121.79 148.559 120.539C148.797 119.995 148.882 119.397 148.805 118.808C148.727 118.219 148.49 117.663 148.12 117.199L147.812 116.816C148.422 117.047 149.451 117.37 150.839 117.733C153.964 118.523 157.155 119.028 160.372 119.244H161.855C167.456 119.47 173.047 118.586 178.305 116.644C178.151 117.628 178.306 118.634 178.748 119.526Z" fill="url(#paint20_linear_344_1510)"/>
<path d="M115.317 165.675L115.433 170.714L118.232 169.852C118.232 169.852 115.317 167.832 115.317 165.675Z" fill="#3F3D56"/>
<path d="M176.68 63.5522L176.07 63.1391C176.99 60.3605 177.314 57.4199 177.023 54.5079C176.297 48.3406 171.939 44.5768 164.766 43.9268C153.769 42.8838 149.416 48.5522 147.802 52.0188C143.141 61.7081 147.358 77.3984 154.077 84.4373C162.36 93.0736 159.162 109.358 157.991 114.165C157.953 114.283 157.928 114.405 157.916 114.528V114.851L159.605 115.425L159.727 114.951C160.728 111.103 161.31 107.159 161.462 103.186C161.759 94.6204 159.706 87.6923 155.504 83.1575C149.3 76.6627 145.27 61.6678 149.552 52.7948C152.15 47.479 157.391 45.0302 164.72 45.7104C172.695 46.4662 174.9 51.0363 175.344 54.7195C175.568 57.2441 175.285 59.7881 174.511 62.2019C172.73 61.3043 170.686 61.0755 168.751 61.5569C164.973 62.5949 162.587 66.5049 161.25 69.5885C160.916 70.3551 160.813 71.2025 160.953 72.0267C161.094 72.851 161.472 73.6164 162.042 74.2291C162.598 74.828 163.316 75.2544 164.108 75.4572C164.901 75.66 165.735 75.6307 166.511 75.3729C169.916 74.1686 173.467 69.9966 175.465 64.9076L175.661 65.0437C181.21 68.9436 177.25 74.9546 172.695 81.9231C169.452 86.8055 165.427 92.8821 164.993 98.868C164.488 104.229 164.72 108.467 165.084 113.863L165.109 114.291H166.925L166.899 113.787C166.546 108.401 166.335 104.214 166.809 99.004C167.197 93.522 170.905 87.8838 174.173 82.8804L174.32 82.6537C179.066 75.3829 183.546 68.48 176.68 63.5522ZM165.865 73.6295C165.427 73.7797 164.953 73.7972 164.505 73.6798C164.056 73.5624 163.652 73.3152 163.343 72.9694C163.011 72.6163 162.791 72.173 162.71 71.6952C162.629 71.2174 162.692 70.7264 162.889 70.2838C163.848 68.0618 165.946 64.1871 169.21 63.2801C169.677 63.1528 170.158 63.0884 170.642 63.0887C171.756 63.1265 172.848 63.4086 173.84 63.915C171.939 68.7168 168.705 72.6822 165.865 73.6396V73.6295ZM175.011 63.5069L175.091 63.5623L175.011 63.5069Z" fill="white"/>
</g>
<defs>
<linearGradient id="paint0_linear_344_1510" x1="75.8657" y1="211.703" x2="114.016" y2="211.703" gradientUnits="userSpaceOnUse">
<stop stop-color="#68E1FD" stop-opacity="0"/>
<stop offset="0.02" stop-color="#66DAF6" stop-opacity="0.04"/>
<stop offset="0.18" stop-color="#58A1BC" stop-opacity="0.39"/>
<stop offset="0.35" stop-color="#4D758F" stop-opacity="0.66"/>
<stop offset="0.53" stop-color="#45566F" stop-opacity="0.85"/>
<stop offset="0.73" stop-color="#40435C" stop-opacity="0.96"/>
<stop offset="0.99" stop-color="#3F3D56"/>
</linearGradient>
<linearGradient id="paint1_linear_344_1510" x1="128.987" y1="187.916" x2="84.1147" y2="239.254" gradientUnits="userSpaceOnUse">
<stop offset="0.11" stop-color="#68E1FD" stop-opacity="0"/>
<stop offset="0.13" stop-color="#66DAF6" stop-opacity="0.04"/>
<stop offset="0.27" stop-color="#58A1BC" stop-opacity="0.39"/>
<stop offset="0.42" stop-color="#4D758F" stop-opacity="0.66"/>
<stop offset="0.58" stop-color="#45566F" stop-opacity="0.85"/>
<stop offset="0.76" stop-color="#40435C" stop-opacity="0.96"/>
<stop offset="0.99" stop-color="#3F3D56"/>
</linearGradient>
<linearGradient id="paint2_linear_344_1510" x1="209.751" y1="164.839" x2="282.183" y2="181.557" gradientUnits="userSpaceOnUse">
<stop stop-color="#68E1FD" stop-opacity="0"/>
<stop offset="0.02" stop-color="#66DAF6" stop-opacity="0.04"/>
<stop offset="0.18" stop-color="#58A1BC" stop-opacity="0.39"/>
<stop offset="0.35" stop-color="#4D758F" stop-opacity="0.66"/>
<stop offset="0.53" stop-color="#45566F" stop-opacity="0.85"/>
<stop offset="0.73" stop-color="#40435C" stop-opacity="0.96"/>
<stop offset="0.99" stop-color="#3F3D56"/>
</linearGradient>
<linearGradient id="paint3_linear_344_1510" x1="268.4" y1="156.273" x2="237.976" y2="138.543" gradientUnits="userSpaceOnUse">
<stop offset="0.36" stop-color="#00272E"/>
<stop offset="1" stop-color="#69B9EB" stop-opacity="0"/>
</linearGradient>
<linearGradient id="paint4_linear_344_1510" x1="256.435" y1="110.553" x2="267.412" y2="110.553" gradientUnits="userSpaceOnUse">
<stop stop-color="#ECC4D7"/>
<stop offset="0.42" stop-color="#EFD4D1"/>
<stop offset="1" stop-color="#F2EAC9"/>
</linearGradient>
<linearGradient id="paint5_linear_344_1510" x1="263.643" y1="102.602" x2="244.32" y2="134.787" gradientUnits="userSpaceOnUse">
<stop stop-color="#ECC4D7"/>
<stop offset="0.42" stop-color="#EFD4D1"/>
<stop offset="1" stop-color="#F2EAC9"/>
</linearGradient>
<linearGradient id="paint6_linear_344_1510" x1="246.554" y1="95.3359" x2="269.803" y2="95.3359" gradientUnits="userSpaceOnUse">
<stop stop-color="#ECC4D7"/>
<stop offset="0.42" stop-color="#EFD4D1"/>
<stop offset="1" stop-color="#F2EAC9"/>
</linearGradient>
<linearGradient id="paint7_linear_344_1510" x1="193.387" y1="151.436" x2="217.574" y2="151.436" gradientUnits="userSpaceOnUse">
<stop stop-color="#ECC4D7"/>
<stop offset="0.42" stop-color="#EFD4D1"/>
<stop offset="1" stop-color="#F2EAC9"/>
</linearGradient>
<linearGradient id="paint8_linear_344_1510" x1="255.966" y1="175.133" x2="302.183" y2="197.237" gradientUnits="userSpaceOnUse">
<stop stop-color="#68E1FD" stop-opacity="0"/>
<stop offset="0.02" stop-color="#66DAF6" stop-opacity="0.04"/>
<stop offset="0.18" stop-color="#58A1BC" stop-opacity="0.39"/>
<stop offset="0.35" stop-color="#4D758F" stop-opacity="0.66"/>
<stop offset="0.53" stop-color="#45566F" stop-opacity="0.85"/>
<stop offset="0.73" stop-color="#40435C" stop-opacity="0.96"/>
<stop offset="0.99" stop-color="#3F3D56"/>
</linearGradient>
<linearGradient id="paint9_linear_344_1510" x1="298.898" y1="190.047" x2="304.31" y2="190.047" gradientUnits="userSpaceOnUse">
<stop stop-color="#ECC4D7"/>
<stop offset="0.42" stop-color="#EFD4D1"/>
<stop offset="1" stop-color="#F2EAC9"/>
</linearGradient>
<linearGradient id="paint10_linear_344_1510" x1="245.303" y1="201.918" x2="253.328" y2="201.918" gradientUnits="userSpaceOnUse">
<stop stop-color="#ECC4D7"/>
<stop offset="0.42" stop-color="#EFD4D1"/>
<stop offset="1" stop-color="#F2EAC9"/>
</linearGradient>
<linearGradient id="paint11_linear_344_1510" x1="304.563" y1="171.631" x2="248.719" y2="142.714" gradientUnits="userSpaceOnUse">
<stop offset="0.36" stop-color="#00272E"/>
<stop offset="1" stop-color="#69B9EB" stop-opacity="0"/>
</linearGradient>
<linearGradient id="paint12_linear_344_1510" x1="214.104" y1="178.866" x2="238.861" y2="178.866" gradientUnits="userSpaceOnUse">
<stop stop-color="#ECC4D7"/>
<stop offset="0.42" stop-color="#EFD4D1"/>
<stop offset="1" stop-color="#F2EAC9"/>
</linearGradient>
<linearGradient id="paint13_linear_344_1510" x1="144.614" y1="204.876" x2="162.491" y2="204.876" gradientUnits="userSpaceOnUse">
<stop stop-color="#ECC4D7"/>
<stop offset="0.42" stop-color="#EFD4D1"/>
<stop offset="1" stop-color="#F2EAC9"/>
</linearGradient>
<linearGradient id="paint14_linear_344_1510" x1="51.709" y1="180.937" x2="93.3229" y2="185.952" gradientUnits="userSpaceOnUse">
<stop offset="0.36" stop-color="#00272E"/>
<stop offset="1" stop-color="#69B9EB" stop-opacity="0"/>
</linearGradient>
<linearGradient id="paint15_linear_344_1510" x1="84.0425" y1="132.259" x2="109.304" y2="132.259" gradientUnits="userSpaceOnUse">
<stop stop-color="#ECC4D7"/>
<stop offset="0.42" stop-color="#EFD4D1"/>
<stop offset="1" stop-color="#F2EAC9"/>
</linearGradient>
<linearGradient id="paint16_linear_344_1510" x1="70.1202" y1="219.372" x2="122.23" y2="182.883" gradientUnits="userSpaceOnUse">
<stop offset="0.36" stop-color="#00272E"/>
<stop offset="1" stop-color="#69B9EB" stop-opacity="0"/>
</linearGradient>
<linearGradient id="paint17_linear_344_1510" x1="83.4121" y1="244.933" x2="93.3241" y2="244.933" gradientUnits="userSpaceOnUse">
<stop stop-color="#ECC4D7"/>
<stop offset="0.42" stop-color="#EFD4D1"/>
<stop offset="1" stop-color="#F2EAC9"/>
</linearGradient>
<linearGradient id="paint18_linear_344_1510" x1="165.069" y1="123.497" x2="134.581" y2="122.386" gradientUnits="userSpaceOnUse">
<stop stop-color="#68E1FD" stop-opacity="0"/>
<stop offset="0.02" stop-color="#66DAF6" stop-opacity="0.04"/>
<stop offset="0.18" stop-color="#58A1BC" stop-opacity="0.39"/>
<stop offset="0.35" stop-color="#4D758F" stop-opacity="0.66"/>
<stop offset="0.53" stop-color="#45566F" stop-opacity="0.85"/>
<stop offset="0.73" stop-color="#40435C" stop-opacity="0.96"/>
<stop offset="0.99" stop-color="#3F3D56"/>
</linearGradient>
<linearGradient id="paint19_linear_344_1510" x1="161.765" y1="109.666" x2="165.182" y2="159.962" gradientUnits="userSpaceOnUse">
<stop stop-color="#68E1FD" stop-opacity="0"/>
<stop offset="0.02" stop-color="#66DAF6" stop-opacity="0.04"/>
<stop offset="0.18" stop-color="#58A1BC" stop-opacity="0.39"/>
<stop offset="0.35" stop-color="#4D758F" stop-opacity="0.66"/>
<stop offset="0.53" stop-color="#45566F" stop-opacity="0.85"/>
<stop offset="0.73" stop-color="#40435C" stop-opacity="0.96"/>
<stop offset="0.99" stop-color="#3F3D56"/>
</linearGradient>
<linearGradient id="paint20_linear_344_1510" x1="162.698" y1="109.605" x2="166.115" y2="159.896" gradientUnits="userSpaceOnUse">
<stop stop-color="#68E1FD" stop-opacity="0"/>
<stop offset="0.02" stop-color="#66DAF6" stop-opacity="0.04"/>
<stop offset="0.18" stop-color="#58A1BC" stop-opacity="0.39"/>
<stop offset="0.35" stop-color="#4D758F" stop-opacity="0.66"/>
<stop offset="0.53" stop-color="#45566F" stop-opacity="0.85"/>
<stop offset="0.73" stop-color="#40435C" stop-opacity="0.96"/>
<stop offset="0.99" stop-color="#3F3D56"/>
</linearGradient>
<clipPath id="clip0_344_1510">
<rect width="328.972" height="300" fill="white"/>
</clipPath>
</defs>
</svg>
